<svg id="Layer_1" data-name="Layer 1" xmlns="http://www.w3.org/2000/svg" viewBox="0 0 503.94 360"><defs><style>.cls-1{font-size:12px;font-family:MyriadPro-Regular, Myriad Pro;}.cls-1,.cls-4,.cls-7{fill:#111820;}.cls-2{fill:none;stroke:#111820;stroke-miterlimit:10;stroke-width:25px;}.cls-3{fill:#fff;}.cls-4{opacity:0.1;}.cls-5,.cls-6{fill:#ffb819;}.cls-5{opacity:0.85;}</style></defs><title>Temoc_All</title><text class="cls-1" transform="translate(330.84 309.65)">TM</text><path class="cls-2" d="M302.06,302.18c71.85-56,71.14-122.48,50.42-171,0,0-18.56,17.78-38.06,27.38,0,0,40.37-70.64-17.67-117.85,0,0-10.33,25.35-28.78,36.2C246.65,89.46,233.68,96,211.42,120.08c0,0,5-24.39,8.86-36.68,0,0-106.29,26.59-73.93,157.63,0,0,.8,43.33,30.6,67.66,29.33,21.44,84.75,17,118.75-2.26A52.14,52.14,0,0,0,302.06,302.18Z"/><path class="cls-3" d="M219.24,94.13l8.82-17.24s-31.38,4.05-59.45,33c-27.37,28.27-31.64,68-31.64,68Z"/><path class="cls-3" d="M294.5,32.49a50.58,50.58,0,0,1-21.68,37.63c-19.39,13.64-45.64,21-62.12,44.75,0,0,2.78-26.14,15.39-36.71,0,0-114.08,24.77-82.93,161.63,0,0-1.17,49.8,32.28,71.7s79.61,22.51,129.33-5.06C357,277.43,383.21,180.8,353.29,126c0,0-11.93,17-32.63,21.77,0,0,28.14-62.85-14-104.57"/><path class="cls-3" d="M294.53,32.48a50.58,50.58,0,0,1-21.68,37.63c-19.39,13.64-45.64,21-62.12,44.75,9.94-22.39,9.85-22.56,17.33-38,0,0-111.3,17.29-87.86,160.89,0,0-12.7-46,54.51-49.32,195.67-9.64,133.82,92.95,133.82,92.95,6.22-7.78,65.14-85.07,25.79-155.46,0,0-12.93,17-33.63,21.77,0,0,34.74-53.88-14-104.57"/><path class="cls-4" d="M273.68,193.67s-21.76,32.84-70,32-48.58-18.64-48.58-18.64l7.36-9.55S223.22,217.31,273.68,193.67Z"/><path class="cls-5" d="M334.95,228.52s31.06-26.19,4.87-70.32c0,0,.94,24.28-2.22,31.89l-14.4-11.51S336.55,208.9,334.95,228.52Z"/><path class="cls-5" d="M220.9,92.26l7.15-15.36s-67.3,9.37-88.06,85.69C140,162.58,166.42,110.8,220.9,92.26Z"/><path class="cls-6" d="M354.09,124.85C341.27,141,320.8,147.56,320.8,147.56c.23-43.85-9.1-54.92-9.1-54.92.24,81.27-44.48,97.49-56.25,100.45,8.5-1.36,33.86-1.87,51.5,20.79,9.16,11.77,6.29,24.24,6.45,38.19,6.23-2.93,15.67-9.3,15.67-9.3a85.71,85.71,0,0,1-12.57,32.09q-.23,1.29-.47,2.54C322.58,275,334.17,263,334.17,263c-1.34,17.15-26,37.39-28.11,39.66,1.07,2,2,2,2,2s42.25-23.26,57.24-94.4C377.19,153.82,354.09,124.85,354.09,124.85Zm-18.82,103c3.93-17.37-11.14-47.71-11.14-47.71l13.46,10.18c3.16-7.61,2.22-31.89,2.22-31.89C364.2,201.41,335.27,227.83,335.27,227.83Z"/><path class="cls-6" d="M217.76,189.81a32.47,32.47,0,0,0,3.92,2.66A13,13,0,0,0,217.76,189.81Z"/><path class="cls-6" d="M185.09,149.19c12-18.11,28.06-39.66,28.06-39.66s2.89-5.87,8.3-18.57l-3,1c-47,16-70.84,55.73-77,66.32-14.28,45.42.68,89.25.68,89.25s4.47-48.86,26.76-56.07c0,0-15.6-18-11.07-15.8C150.94,170.37,171.14,170.24,185.09,149.19Z"/><path class="cls-6" d="M294.5,32.49,306.68,45.7s24.31,73.74-36.09,92.77c0,0-19.36,75.94-110.15,38.44,0,0,3.34-3.29,8.31-8.52a126.57,126.57,0,0,1-24.08,13.93s38.65,32,96,22.23c32.18-5.48,45.68-22.28,51.07-32.67,9.39-5.46,25.85-15.91,30.08-24.32C358.09,75.42,294.5,32.49,294.5,32.49Z"/><path class="cls-7" d="M305.54,302.85a28.36,28.36,0,0,0,2.33-1.82q1.11-1,2.15-2a54.55,54.55,0,0,0,3.93-4.31q.93-1.12,1.79-2.29c.59-.76,1.15-1.55,1.71-2.34s1.08-1.6,1.6-2.41,1-1.63,1.49-2.47.94-1.68,1.41-2.52.9-1.7,1.34-2.55c.85-1.72,1.67-3.46,2.39-5.23.38-.88.72-1.78,1.07-2.67s.66-1.8,1-2.69l.94-2.72.86-2.74,4.54,3.51-1.07.75-1.05.71-2.12,1.37c-1.42.89-2.87,1.77-4.34,2.59s-3,1.61-4.51,2.36c-.77.37-1.54.74-2.33,1.09s-1.6.67-2.4,1l-7.47,3.11,2.78-7.88,1.49-4.23,1.47-4.26q1.48-4.26,2.89-8.54c.95-2.85,1.9-5.7,2.81-8.56l2.69-8.58,6.4,4.17-2,1.66-2,1.62c-1.34,1.07-2.68,2.13-4.05,3.16a96.57,96.57,0,0,1-8.69,5.94l-8.09,4.79,2.38-9.08c.17-.63.35-1.47.5-2.24s.31-1.57.43-2.37c.26-1.59.47-3.19.62-4.8a61.24,61.24,0,0,0,.17-9.62,41.66,41.66,0,0,0-1.61-9.3,32.39,32.39,0,0,0-1.64-4.35,28.27,28.27,0,0,0-2.32-4q-.66-.94-1.4-1.83l-.77-.87-.19-.22a2.65,2.65,0,0,0-.19-.2l-.45-.45c-.61-.62-1.2-1.17-1.78-1.72s-1.22-1.1-1.84-1.65c-1.25-1.08-2.56-2.09-3.87-3.11s-2.69-2-4.09-2.86-2.84-1.75-4.32-2.54-3-1.58-4.5-2.28a58.21,58.21,0,0,0-9.56-3.46,37,37,0,0,1,5.12.61,50.58,50.58,0,0,1,5,1.19q2.5.71,5,1.62t4.8,2.07q2.36,1.14,4.65,2.45c1.52.88,3,1.84,4.44,2.85.72.51,1.43,1,2.14,1.57s1.43,1.1,2.07,1.64l.5.41c.1.08.14.1.28.23l.26.23,1,.94c.67.65,1.32,1.33,1.93,2a31.73,31.73,0,0,1,3.23,4.59,34.45,34.45,0,0,1,2.38,5,40.72,40.72,0,0,1,1.61,5.28,44.91,44.91,0,0,1,1,5.39c.23,1.8.34,3.61.41,5.41s0,3.6-.07,5.4-.26,3.58-.49,5.36c-.11.89-.24,1.78-.4,2.68s-.32,1.74-.56,2.76l-5.71-4.29a89.72,89.72,0,0,0,7.84-5.56q1.94-1.5,3.87-3.06l1.91-1.57,1.87-1.58,10.22-8.61-3.82,12.78c-.87,2.93-1.77,5.85-2.73,8.74s-1.91,5.79-2.93,8.66-2.06,5.73-3.12,8.58l-1.64,4.26-1.69,4.27-4.69-4.77a79.37,79.37,0,0,0,8.63-3.59c1.42-.69,2.85-1.39,4.25-2.14l2.09-1.14,2-1.16,7.77-4.45-3.23,8-1.14,2.81-1.22,2.78c-.84,1.84-1.76,3.65-2.73,5.42s-2,3.52-3.08,5.23-2.22,3.38-3.47,5a62.78,62.78,0,0,1-8.17,8.9c-.75.67-1.52,1.31-2.31,1.94s-1.58,1.23-2.41,1.79A30.22,30.22,0,0,1,305.54,302.85Z"/><path class="cls-7" d="M216.84,104.86c-2.17,3.88-4.54,7.64-7,11.37s-4.93,7.39-7.46,11c-1.26,1.83-2.56,3.63-3.86,5.43l-3.94,5.37c-1.33,1.78-2.64,3.57-4,5.33l-4.09,5.25-2.06,2.62-1.06,1.33-1.05,1.28c-1.37,1.71-2.89,3.43-4.37,5.15s-3,3.33-4.59,4.93-3.14,3.21-4.72,4.8-3.21,3.13-4.85,4.66-3.28,3.05-5,4.54-3.38,2.94-5.1,4.39-3.44,2.85-5.27,4.28l.05-6.24c.67.51,1.51,1.1,2.3,1.64s1.62,1.1,2.44,1.63c1.65,1.07,3.34,2.09,5,3.09q5.14,3,10.53,5.47c3.59,1.66,7.24,3.19,11,4.54s7.49,2.54,11.31,3.51,7.68,1.78,11.57,2.38a116.34,116.34,0,0,0,11.74,1.11,107.67,107.67,0,0,0,11.77-.24c2-.16,3.9-.39,5.85-.63,1-.13,2-.29,2.94-.44s1.95-.32,2.91-.51a96.66,96.66,0,0,0,11.46-2.84,85.91,85.91,0,0,0,11-4.21,75.85,75.85,0,0,0,10.26-5.77,74,74,0,0,0,9.29-7.27,72.68,72.68,0,0,0,8-8.78,71.17,71.17,0,0,0,6.58-10c.5-.87,1-1.75,1.41-2.66l1.36-2.7c.8-1.85,1.69-3.67,2.38-5.57,1.53-3.76,2.71-7.65,3.87-11.57a93.86,93.86,0,0,1-2.43,12c-.49,2-1.19,3.94-1.81,5.91s-1.4,3.9-2.29,5.77a74.47,74.47,0,0,1-5.93,11,71.51,71.51,0,0,1-7.78,9.9,74.63,74.63,0,0,1-9.42,8.45,81.69,81.69,0,0,1-10.72,6.75,92.08,92.08,0,0,1-11.59,5.11A103.59,103.59,0,0,1,239.4,209c-1,.24-2.06.44-3.09.64s-2.11.39-3.1.54l-.75.12-.81.11-1.57.2c-1.05.12-2.1.3-3.15.37a109.23,109.23,0,0,1-12.67.47,114.5,114.5,0,0,1-25-3.5c-4.09-1-8.1-2.28-12.06-3.69s-7.84-3-11.64-4.79-7.52-3.73-11.15-5.84c-1.81-1.06-3.6-2.16-5.37-3.31-.88-.58-1.76-1.17-2.64-1.77s-1.7-1.21-2.66-1.95l-4.06-3.14,4.11-3.1c1.67-1.26,3.41-2.64,5.1-4s3.37-2.76,5-4.18,3.33-2.82,5-4.25,3.26-2.9,4.87-4.37,3.19-3,4.74-4.5,3.08-3.08,4.62-4.61,3-3.06,4.49-4.72l2.21-2.42,2.21-2.46,8.81-9.88,8.75-9.95,4.35-5,4.33-5,4.31-5.05C214,108.27,215.42,106.56,216.84,104.86Z"/><path class="cls-7" d="M228.46,251.77s0-.24,0-.68a18.07,18.07,0,0,1,.17-1.92,29.89,29.89,0,0,1,1.71-6.7,35.09,35.09,0,0,1,2-4.24,33.9,33.9,0,0,1,2.84-4.42,35.68,35.68,0,0,1,3.75-4.24,37.23,37.23,0,0,1,4.55-3.7,36.25,36.25,0,0,1,5.09-2.92,37.14,37.14,0,0,1,5.28-2,38.34,38.34,0,0,1,5.12-1.1c.82-.14,1.62-.2,2.39-.26s1.52-.14,2.24-.12a34.78,34.78,0,0,1,3.89.14,27.68,27.68,0,0,1,3,.39c.82.14,1.45.3,1.88.38l.66.16-.66.19c-.43.1-1.05.29-1.84.46s-1.74.46-2.81.73-2.27.63-3.57,1c-.65.16-1.31.41-2,.62s-1.39.42-2.1.7c-1.43.49-2.89,1.09-4.39,1.71l-2.23,1c-.73.4-1.49.74-2.22,1.15a48.09,48.09,0,0,0-4.32,2.67,50,50,0,0,0-4,3.06c-1.25,1.11-2.5,2.21-3.61,3.38s-2.19,2.32-3.15,3.48-1.83,2.3-2.64,3.37c-1.57,2.16-2.81,4.08-3.64,5.46l-1,1.63Z"/><path class="cls-7" d="M210.48,251.92s0,0,0,.19c-.14,0-.09-.06-.13-.08l-.06-.09-.14-.24c-.2-.36-.53-.88-.89-1.54-.77-1.31-1.85-3.15-3.24-5.23a63,63,0,0,0-5.07-6.64c-1-1.13-2.07-2.24-3.19-3.32a48.26,48.26,0,0,0-7.44-5.76c-1.33-.82-2.67-1.58-4-2.26a68.92,68.92,0,0,0-7.7-3.3c-2.36-.85-4.4-1.5-5.85-2s-2.3-.74-2.3-.74l.62-.14c.41-.08,1-.21,1.78-.31a32.1,32.1,0,0,1,6.44-.25,33.9,33.9,0,0,1,9.08,1.8,32.33,32.33,0,0,1,4.86,2.13,32.62,32.62,0,0,1,8.68,6.73,32.11,32.11,0,0,1,3.27,4.18,32.85,32.85,0,0,1,4,8.38,29,29,0,0,1,1.24,6.35c.08.77.07,1.39.09,1.8,0,.19.05.39,0,.43Z"/><path class="cls-7" d="M267.18,284.6s10.08-2.83,14.72-.32c0,0,3.44,3.15,1.05,13.44,0,0-3-7.38-5-9.21S267.18,284.6,267.18,284.6Z"/><path class="cls-7" d="M251.42,268.57c4-.24,11.53-2,23.06-3.81,0,0-4.64-3.46-12.9-1.85S251.42,268.57,251.42,268.57Z"/><path class="cls-7" d="M171.62,264c4.14.88,10.43,1.55,22.28,4.47,0,0-.59-3.94-10.06-6.13C175.76,260.45,171.62,264,171.62,264Z"/><path class="cls-7" d="M167.33,192.62l-.54.61L165.32,195c-1.24,1.49-3,3.64-4.89,6.25-1,1.32-2,2.74-3,4.28s-2,3.18-3.06,4.89-2,3.52-2.91,5.38-1.8,3.77-2.59,5.73-1.52,3.92-2.13,5.9c-.32,1-.62,2-.88,3s-.52,2-.75,2.92l-.34,1.44q-.13.72-.28,1.42l-.29,1.4-.22,1.37c-.33,1.81-.51,3.54-.73,5.15l-.22,2.32c-.09.74-.15,1.45-.18,2.11-.06,1.33-.22,2.51-.22,3.48s-.09,1.74-.11,2.27l-.06.81-.28-.76c-.17-.5-.45-1.23-.73-2.17s-.58-2.11-.9-3.46-.52-2.89-.77-4.59a53.67,53.67,0,0,1-.29-5.53c0-1,0-2,.1-3s.15-2.1.3-3.17l.21-1.62.31-1.63.32-1.65.43-1.65a53.18,53.18,0,0,1,2.17-6.55c.44-1.07.93-2.12,1.41-3.16s1-2.06,1.61-3,1.13-2,1.75-2.88,1.23-1.83,1.87-2.7a53.81,53.81,0,0,1,7.94-8.59,43.89,43.89,0,0,1,6.67-4.81c.84-.51,1.56-.85,2-1.09S167.33,192.62,167.33,192.62Z"/><path class="cls-7" d="M207.37,256.86,205.91,255c-.94-1.15-2.28-2.77-4-4.56a47.33,47.33,0,0,0-6.08-5.51,30.55,30.55,0,0,0-3.75-2.41,24.32,24.32,0,0,0-4.13-1.75,10,10,0,0,0-1.07-.31c-.36-.1-.72-.19-1.09-.25l-.55-.11-.14,0s-.09,0,0,0H185l-.31,0c-.4-.06-.85-.14-1.21-.17a33.7,33.7,0,0,0-4.46-.3,30,30,0,0,0-4.2.31,27.14,27.14,0,0,0-3.73.83,25.23,25.23,0,0,0-5.41,2.34,17.36,17.36,0,0,0-1.94,1.3,5.3,5.3,0,0,1,.29-.55,12.06,12.06,0,0,1,1-1.46,17.82,17.82,0,0,1,4.89-4.18,22.79,22.79,0,0,1,8.79-2.92,27.66,27.66,0,0,1,5.28-.14c.47,0,.85.08,1.27.11l.31,0,.21,0,.17,0,.7.1a13.3,13.3,0,0,1,1.38.28,14.07,14.07,0,0,1,1.36.37,22.34,22.34,0,0,1,5.08,2.28,25.34,25.34,0,0,1,4.21,3.21,29.62,29.62,0,0,1,5.58,7.21,30.57,30.57,0,0,1,2.49,5.82A16.26,16.26,0,0,1,207.37,256.86Z"/><path class="cls-7" d="M280.89,244.11s-.17-.15-.51-.4a16.35,16.35,0,0,0-1.51-1,22,22,0,0,0-2.47-1.14l-.75-.29-.82-.24c-.55-.18-1.14-.32-1.75-.47a34.61,34.61,0,0,0-4-.67l-2.21-.17-2.32,0-2.4.07c-.81,0-1.64.14-2.46.18l-.62,0h-.17l-.33.05-1.31.2c-.43.07-.9.11-1.29.21l-1.09.31-1.1.27-1.13.41-1.13.41c-.38.13-.73.33-1.1.49a35.83,35.83,0,0,0-4.21,2.23c-1.34.81-2.59,1.69-3.77,2.56l-1.7,1.31-1.56,1.29c-1,.86-1.89,1.64-2.68,2.38s-1.47,1.38-2,1.93c-1.11,1.1-1.75,1.75-1.75,1.75s.06-.22.21-.62.37-1,.72-1.71A27.7,27.7,0,0,1,235,251c.29-.47.59-1,.92-1.52l1.12-1.63,1.33-1.7c.48-.58,1-1.14,1.54-1.73a34.12,34.12,0,0,1,3.75-3.4,23.22,23.22,0,0,1,2.21-1.56,19.6,19.6,0,0,1,2.42-1.4,17.81,17.81,0,0,1,2.61-1.17c.45-.17.9-.35,1.36-.52l1.48-.4,1.49-.36c.48-.1.89-.13,1.34-.19l1.31-.16.33,0,.31,0h.17l.69,0a39.56,39.56,0,0,1,5.4.17c.88.13,1.74.23,2.57.38s1.65.35,2.43.57,1.54.46,2.25.75,1.4.55,2,.89a18.28,18.28,0,0,1,3.27,2.06,14.24,14.24,0,0,1,2.15,2A8.26,8.26,0,0,1,280.89,244.11Z"/><path class="cls-7" d="M205.37,306.46s44.87,9.25,72.68-21.75l2.54,3.79S253.62,322.46,205.37,306.46Z"/><circle class="cls-7" cx="257.1" cy="251.85" r="14.45"/><circle class="cls-7" cx="185.58" cy="251.68" r="14.45"/><circle class="cls-3" cx="178.74" cy="255.23" r="3.81"/><circle class="cls-3" cx="251.42" cy="256.39" r="3.91"/><path class="cls-5" d="M158.55,178.49a210.21,210.21,0,0,0,28.88-31c13.41-18,22.08-30.92,23.88-33.62a75.25,75.25,0,0,1,16.37-16.35c9.95-7.4,13.8-9.07,13.8-9.07s11.65-6.41,16.27-9,14-7.59,19.83-13,11.8-13.7,14.14-21.33a51.43,51.43,0,0,0,2.54-12.33C294.36,32,306.57,44,306.57,44l12.54,25.86L312.74,119l-33,27L263.8,176.1,221.43,188l-33.32,3.5-27.19-7.69Z"/></svg>